<?xml version="1.0" encoding="UTF-8" standalone="no"?>
<!-- Created with Inkscape (http://www.inkscape.org/) -->

<svg
   xmlns:dc="http://purl.org/dc/elements/1.1/"
   xmlns:cc="http://creativecommons.org/ns#"
   xmlns:rdf="http://www.w3.org/1999/02/22-rdf-syntax-ns#"
   xmlns:svg="http://www.w3.org/2000/svg"
   xmlns="http://www.w3.org/2000/svg"
   xmlns:sodipodi="http://sodipodi.sourceforge.net/DTD/sodipodi-0.dtd"
   xmlns:inkscape="http://www.inkscape.org/namespaces/inkscape"
   width="50"
   height="50"
   viewBox="0 0 50.000002 50"
   id="svg2"
   version="1.1"
   inkscape:version="0.91 r13725"
   sodipodi:docname="favicon.svg">
  <defs
     id="defs4" />
  <sodipodi:namedview
     id="base"
     pagecolor="#ffffff"
     bordercolor="#666666"
     borderopacity="1.0"
     inkscape:pageopacity="0.0"
     inkscape:pageshadow="2"
     inkscape:zoom="5.630478"
     inkscape:cx="37.221286"
     inkscape:cy="42.229003"
     inkscape:document-units="px"
     inkscape:current-layer="g4234"
     showgrid="false"
     inkscape:window-width="1366"
     inkscape:window-height="747"
     inkscape:window-x="0"
     inkscape:window-y="21"
     inkscape:window-maximized="1"
     showborder="true"
     fit-margin-top="1"
     fit-margin-left="1"
     fit-margin-bottom="1"
     fit-margin-right="1"
     borderlayer="true"
     units="px" />
  <metadata
     id="metadata7">
    <rdf:RDF>
      <cc:Work
         rdf:about="">
        <dc:format>image/svg+xml</dc:format>
        <dc:type
           rdf:resource="http://purl.org/dc/dcmitype/StillImage" />
        <dc:title></dc:title>
      </cc:Work>
    </rdf:RDF>
  </metadata>
  <g
     inkscape:label="Calque 1"
     inkscape:groupmode="layer"
     id="layer1"
     style="display:inline"
     transform="translate(-135.93948,-96.223563)">
    <g
       style="font-style:normal;font-weight:normal;font-size:40px;line-height:125%;font-family:sans-serif;letter-spacing:0px;word-spacing:0px;display:inline;fill:#000000;fill-opacity:1;stroke:none;stroke-width:1px;stroke-linecap:butt;stroke-linejoin:miter;stroke-opacity:1"
       id="text3363"
       inkscape:label="text3363">
      <g
         inkscape:groupmode="layer"
         id="layer2"
         inkscape:label="Layer 1"
         style="display:inline" />
    </g>
  </g>
  <g
     inkscape:groupmode="layer"
     id="layer3"
     inkscape:label="back"
     transform="translate(-135.93948,-96.223563)">
    <g
       style="font-style:normal;font-weight:normal;font-size:40px;line-height:125%;font-family:sans-serif;letter-spacing:0px;word-spacing:0px;display:inline;fill:#000000;fill-opacity:1;stroke:none;stroke-width:1px;stroke-linecap:butt;stroke-linejoin:miter;stroke-opacity:1"
       id="g3396"
       transform="translate(7.6730829,19.950016)">
      <g
         id="g4210">
        <g
           id="g4234">
          <g
             id="g4143"
             transform="matrix(0.8289773,0,0,0.8289773,23.651575,19.37711)">
            <path
               d="m 183.13349,72.395182 0,7.642098 c -26.3753,-0.004 -28.61905,-0.204099 -40.60249,-0.204099 -3.14113,0 -5.00604,2.58582 -5.00604,6.041564 0,10.679653 20.38506,5.605504 20.38506,25.736865 -0.54382,10.48827 -5.7491,13.59455 -14.52024,13.66194 -4.87147,0 -9.63382,-0.0665 -14.11902,-0.0665 l 0,-12.08613 c 5.53993,5.08249 8.84891,5.37979 13.22422,5.40534 8.20026,0 7.83022,-6.60838 7.03952,-10.84503 -0.98564,-5.2811 -8.68135,-6.33137 -13.06048,-9.443399 -2.82556,-2.007982 -7.20762,-4.315137 -7.20762,-12.729908 0,-9.077778 6.32823,-13.197125 15.27732,-13.197125 13.10791,0 13.97328,-0.0059 38.58977,0.08438 z"
               style="font-style:normal;font-variant:normal;font-weight:bold;font-stretch:normal;font-family:sans-serif;-inkscape-font-specification:'sans-serif Bold';fill:#d40000"
               id="path3371"
               inkscape:connector-curvature="0"
               sodipodi:nodetypes="ccsscccccasssc" />
            <path
               d="m 158.82266,81.151164 23.9363,0 0,4.2937 -15.06675,0 0,4.10191 14.16827,0 0,4.2937 -14.16827,0 0,5.046221 15.57359,0 0,4.293745 -24.44314,0 0,-22.029276 z"
               style="font-style:normal;font-variant:normal;font-weight:bold;font-stretch:normal;font-family:sans-serif;-inkscape-font-specification:'sans-serif Bold';fill:#d40000"
               id="path3373"
               inkscape:connector-curvature="0" />
            <path
               d="m 158.93569,104.82406 7.22996,0 5.01672,10.93383 5.04621,-10.93383 7.21521,0 0,20.43081 -5.37083,0 0,-14.94337 -5.07573,11.01594 -3.60022,0 -5.07573,-11.01594 0,14.94337 -5.38559,0 0,-20.43081 z"
               style="font-style:normal;font-variant:normal;font-weight:bold;font-stretch:normal;font-family:sans-serif;-inkscape-font-specification:'sans-serif Bold';fill:#d40000"
               id="path3375"
               inkscape:connector-curvature="0" />
          </g>
        </g>
      </g>
      <rect
         style="opacity:0"
         id="rect3401"
         width="99.057579"
         height="42.940453"
         x="126.41895"
         y="85.396935" />
    </g>
  </g>
</svg>
