<?xml version="1.0" encoding="UTF-8" standalone="no"?>
<!-- Created with Inkscape (http://www.inkscape.org/) -->

<svg
   xmlns:dc="http://purl.org/dc/elements/1.1/"
   xmlns:cc="http://creativecommons.org/ns#"
   xmlns:rdf="http://www.w3.org/1999/02/22-rdf-syntax-ns#"
   xmlns:svg="http://www.w3.org/2000/svg"
   xmlns="http://www.w3.org/2000/svg"
   xmlns:sodipodi="http://sodipodi.sourceforge.net/DTD/sodipodi-0.dtd"
   xmlns:inkscape="http://www.inkscape.org/namespaces/inkscape"
   width="90.975609"
   height="40.334038"
   viewBox="0 0 90.975613 40.334038"
   id="svg2"
   version="1.1"
   inkscape:version="0.91 r13725"
   sodipodi:docname="logo.svg">
  <defs
     id="defs4" />
  <sodipodi:namedview
     id="base"
     pagecolor="#ffffff"
     bordercolor="#666666"
     borderopacity="1.0"
     inkscape:pageopacity="0.0"
     inkscape:pageshadow="2"
     inkscape:zoom="6.4507936"
     inkscape:cx="52.5629"
     inkscape:cy="4.7333374"
     inkscape:document-units="px"
     inkscape:current-layer="g3396"
     showgrid="false"
     inkscape:window-width="1366"
     inkscape:window-height="747"
     inkscape:window-x="0"
     inkscape:window-y="21"
     inkscape:window-maximized="1"
     showborder="true"
     fit-margin-top="1"
     fit-margin-left="1"
     fit-margin-bottom="1"
     fit-margin-right="1"
     borderlayer="true"
     units="px" />
  <metadata
     id="metadata7">
    <rdf:RDF>
      <cc:Work
         rdf:about="">
        <dc:format>image/svg+xml</dc:format>
        <dc:type
           rdf:resource="http://purl.org/dc/dcmitype/StillImage" />
        <dc:title></dc:title>
      </cc:Work>
    </rdf:RDF>
  </metadata>
  <g
     inkscape:label="Calque 1"
     inkscape:groupmode="layer"
     id="layer1"
     style="display:inline"
     transform="translate(-136.55957,-105.88953)">
    <g
       style="font-style:normal;font-weight:normal;font-size:40px;line-height:125%;font-family:sans-serif;letter-spacing:0px;word-spacing:0px;display:inline;fill:#000000;fill-opacity:1;stroke:none;stroke-width:1px;stroke-linecap:butt;stroke-linejoin:miter;stroke-opacity:1"
       id="text3363"
       inkscape:label="text3363">
      <g
         inkscape:groupmode="layer"
         id="layer2"
         inkscape:label="Layer 1"
         style="display:inline" />
    </g>
  </g>
  <g
     inkscape:groupmode="layer"
     id="layer3"
     inkscape:label="back"
     transform="translate(-136.55957,-105.88953)">
    <g
       style="font-style:normal;font-weight:normal;font-size:40px;line-height:125%;font-family:sans-serif;letter-spacing:0px;word-spacing:0px;display:inline;fill:#000000;fill-opacity:1;stroke:none;stroke-width:1px;stroke-linecap:butt;stroke-linejoin:miter;stroke-opacity:1"
       id="g3396"
       transform="translate(7.6730829,19.950016)">
      <g
         id="g4210">
        <path
           d="m 218.78802,86.967035 0,7.642098 c -26.3753,-0.004 -48.03282,0.08368 -73.93172,-0.04908 -2.22491,0 -3.86942,0.30633 -4.93351,0.918989 -1.06409,0.61266 -1.59613,1.563893 -1.59613,2.853699 0,0.96735 0.3547,1.725109 1.06409,2.273269 0.72551,0.53205 2.03144,0.99156 3.91779,1.3785 l 3.96614,0.79806 c 4.01452,0.80614 6.86822,2.03145 8.5611,3.67595 1.69287,1.6445 2.5393,3.98227 2.5393,7.01332 0,3.98227 -1.18501,6.94882 -3.55503,8.89965 -2.35389,1.93471 -5.95729,2.90206 -10.81019,2.90206 -4.87147,0 -9.63382,-0.0665 -14.11902,-0.0665 l 0,-12.08613 c 5.53993,5.08249 8.84891,5.37979 13.22422,5.40534 2.03145,0 3.58728,-0.33857 4.66749,-1.01571 1.08021,-0.67715 1.62031,-1.6445 1.62031,-2.90207 0,-1.12858 -0.37082,-1.99919 -1.11245,-2.61185 -0.72552,-0.61266 -2.18461,-1.16083 -4.37728,-1.6445 l -3.6034,-0.79807 c -3.61145,-0.77388 -6.25555,-2.00726 -7.9323,-3.70012 -1.66063,-1.69289 -2.49094,-3.97424 -2.49094,-6.844047 0,-3.595333 1.34551,-6.158106 3.48247,-8.295061 2.78808,-2.788082 6.9767,-3.677162 11.32979,-3.677162 27.62607,0 49.47279,-0.160962 74.08927,-0.07064 z"
           style="font-style:normal;font-variant:normal;font-weight:bold;font-stretch:normal;font-family:sans-serif;-inkscape-font-specification:'sans-serif Bold';fill:#d40000"
           id="path3371"
           inkscape:connector-curvature="0"
           sodipodi:nodetypes="cccsscccsscccccssccccsscc" />
        <path
           d="m 161.92306,95.985459 20.29297,0 0,5.683581 -12.77344,0 0,5.42969 12.01172,0 0,5.68359 -12.01172,0 0,6.67969 13.20313,0 0,5.68359 -20.72266,0 0,-29.160141 z"
           style="font-style:normal;font-variant:normal;font-weight:bold;font-stretch:normal;font-family:sans-serif;-inkscape-font-specification:'sans-serif Bold';fill:#d40000"
           id="path3373"
           inkscape:connector-curvature="0" />
        <path
           d="m 186.42069,95.985459 9.57031,0 6.64063,15.605471 6.67969,-15.605471 9.55078,0 0,29.160151 -7.10938,0 0,-21.32812 -6.71875,15.72265 -4.76562,0 -6.71875,-15.72265 0,21.32812 -7.12891,0 0,-29.160151 z"
           style="font-style:normal;font-variant:normal;font-weight:bold;font-stretch:normal;font-family:sans-serif;-inkscape-font-specification:'sans-serif Bold';fill:#d40000"
           id="path3375"
           inkscape:connector-curvature="0" />
      </g>
      <rect
         style="opacity:0"
         id="rect3401"
         width="99.057579"
         height="42.940453"
         x="126.41895"
         y="85.396935" />
    </g>
  </g>
</svg>
